<svg xmlns="http://www.w3.org/2000/svg" viewBox="0 0 237.92 57.72"><defs><style>.cls-1{fill:#fff;}</style></defs><title>suntour</title><g id="Шар_2" data-name="Шар 2"><g id="Шар_1-2" data-name="Шар 1"><path class="cls-1" d="M42.13,41.31a15.26,15.26,0,0,1-1.55,7,14.83,14.83,0,0,1-4.29,5.15,19.52,19.52,0,0,1-6.57,3.18,29.91,29.91,0,0,1-8.33,1.1,36.7,36.7,0,0,1-11.22-1.67A30.87,30.87,0,0,1,0,50.38L5.23,43.6A30.83,30.83,0,0,0,13,47.8a23.89,23.89,0,0,0,8.29,1.52q5.55,0,8.29-2.25a7,7,0,0,0,2.73-5.66,6.17,6.17,0,0,0-1.1-3.83,8.58,8.58,0,0,0-3-2.45A18.47,18.47,0,0,0,24,33.58c-1.6-.38-3.28-.78-5-1.22a49.15,49.15,0,0,1-6.33-1.87,19.81,19.81,0,0,1-5.38-3A14.15,14.15,0,0,1,3.47,23,13.55,13.55,0,0,1,2,16.55,16.49,16.49,0,0,1,3.35,9.94,14.82,14.82,0,0,1,7.1,4.73,18.23,18.23,0,0,1,13,1.26,22.17,22.17,0,0,1,20.66,0a50.11,50.11,0,0,1,10,1,28.24,28.24,0,0,1,9.43,3.84l-4.16,7.64a26.5,26.5,0,0,0-7.48-3.18,30.89,30.89,0,0,0-7.3-.9,13.64,13.64,0,0,0-3.72.49,9.76,9.76,0,0,0-3.1,1.47,7.23,7.23,0,0,0-2.16,2.49,7.3,7.3,0,0,0-.82,3.55,5.48,5.48,0,0,0,1.06,3.43,8.6,8.6,0,0,0,2.82,2.33,19.5,19.5,0,0,0,4,1.55c1.49.41,3.06.77,4.69,1.1a60.24,60.24,0,0,1,7.35,2.12A20.6,20.6,0,0,1,37,30.09a13.56,13.56,0,0,1,3.75,4.61A14.66,14.66,0,0,1,42.13,41.31Z"/><path class="cls-1" d="M57,16.82V42.13c0,2.72.63,4.63,1.89,5.71a6.65,6.65,0,0,0,4.51,1.64q4.52,0,10.83-4.41V16.82L82.87,21V57.24H75l-.81-3.92A32.39,32.39,0,0,1,66.58,57a19.46,19.46,0,0,1-4.94.77q-6.62,0-10-4T48.33,42.86v-26Z"/><path class="cls-1" d="M100,57.24V32.07q0-4.16-1.79-5.74a6.55,6.55,0,0,0-4.5-1.59,14.12,14.12,0,0,0-5,1.06,33.1,33.1,0,0,0-5.87,3V57.24H75.23l-1-4.07V16.82H82l.82,4a44.79,44.79,0,0,1,4.43-2.39,32,32,0,0,1,3.58-1.4,15.07,15.07,0,0,1,2.85-.62c.84-.08,1.61-.12,2.32-.12q6.34,0,9.48,3.84t3.14,10.61V57.24Z"/><path class="cls-1" d="M124.84,4.57V57.24h-3.92V4.57H103.28V1h39V4.57Z"/><path class="cls-1" d="M171.05,43.11q0,6.86-4.34,10.74t-11.54,3.87a19.32,19.32,0,0,1-6.43-1,14.19,14.19,0,0,1-5-2.94,13.15,13.15,0,0,1-3.23-4.57,14.9,14.9,0,0,1-1.15-6V30.94A13.52,13.52,0,0,1,140.64,25a13.37,13.37,0,0,1,3.44-4.49,16,16,0,0,1,5-2.85,18.19,18.19,0,0,1,6.14-1,18.82,18.82,0,0,1,6.27,1,15.57,15.57,0,0,1,5,2.85A12.78,12.78,0,0,1,169.86,25a14.23,14.23,0,0,1,1.19,5.92ZM167.38,32a12.82,12.82,0,0,0-1.1-5.56,11,11,0,0,0-2.82-3.72,10.75,10.75,0,0,0-3.88-2.09,14.67,14.67,0,0,0-4.29-.66,15.31,15.31,0,0,0-4.41.66,10.57,10.57,0,0,0-6.73,5.81A12.67,12.67,0,0,0,143,32V42.26a13.89,13.89,0,0,0,1,5.65,10,10,0,0,0,6.58,5.81,16.13,16.13,0,0,0,4.65.66,14.74,14.74,0,0,0,4.61-.7,10.55,10.55,0,0,0,3.85-2.17,10.3,10.3,0,0,0,2.65-3.76,14,14,0,0,0,1-5.49Z"/><path class="cls-1" d="M207,57.24l-.64-5.56q-2.77,1.73-4.93,2.86c-1.45.76-2.75,1.39-3.92,1.88a16.91,16.91,0,0,1-3.23,1,15,15,0,0,1-2.86.28q-6.19,0-9.55-3.38T178.48,44V17.15h3.68v25.9q0,6,2.53,8.52a9.41,9.41,0,0,0,7,2.56,16.67,16.67,0,0,0,6.78-1.75,48,48,0,0,0,7.83-4.6V17.15H210V57.24Z"/><path class="cls-1" d="M237.92,20.9a26.32,26.32,0,0,0-9.06,2.37,51.35,51.35,0,0,0-5.63,3.18V57.24h-3.68V17.15h3.1l.58,6h.08a27,27,0,0,1,2.9-2.17,31.23,31.23,0,0,1,3.63-2,24.57,24.57,0,0,1,4-1.51,22.53,22.53,0,0,1,4-.73Z"/></g></g></svg>